<?xml version="1.0" standalone="no"?>
<!DOCTYPE svg PUBLIC "-//W3C//DTD SVG 20010904//EN"
 "http://www.w3.org/TR/2001/REC-SVG-20010904/DTD/svg10.dtd">
<svg version="1.0" xmlns="http://www.w3.org/2000/svg"
 width="500.000000pt" height="500.000000pt" viewBox="0 0 500.000000 500.000000"
 preserveAspectRatio="xMidYMid meet">
<metadata>
Created by potrace 1.14, written by Peter Selinger 2001-2017
</metadata>
<g transform="translate(0.000000,500.000000) scale(0.100000,-0.100000)"
fill="#000000" stroke="none">
<path d="M2329 4996 c-2 -2 -35 -6 -74 -10 -38 -3 -79 -8 -90 -10 -11 -2 -40
-7 -65 -10 -52 -7 -55 -8 -175 -35 -89 -20 -277 -78 -338 -105 -18 -7 -61 -26
-97 -41 -261 -111 -594 -342 -779 -541 -35 -38 -80 -87 -101 -109 -130 -141
-309 -424 -395 -625 -20 -47 -40 -94 -45 -105 -5 -11 -22 -60 -38 -110 -94
-281 -130 -515 -127 -805 4 -291 38 -505 121 -762 54 -168 180 -448 229 -508
6 -8 26 -40 45 -70 103 -173 346 -447 524 -590 337 -272 726 -448 1161 -524
131 -23 216 -30 385 -30 220 -1 312 6 468 34 443 80 861 276 1187 558 70 61
226 215 268 267 l41 50 -59 -55 c-220 -204 -471 -360 -745 -465 -90 -35 -204
-73 -239 -80 -235 -48 -240 -49 -371 -61 -87 -9 -307 -9 -400 -1 -461 43 -889
222 -1250 525 -371 311 -640 753 -744 1224 -43 194 -51 278 -51 513 0 172 4
238 21 345 112 704 572 1332 1211 1653 195 99 458 186 641 213 20 3 44 7 52 9
34 9 204 19 325 19 143 0 286 -11 380 -28 17 -4 41 -8 55 -11 390 -73 786
-274 1092 -553 83 -76 62 -47 -64 88 -46 50 -215 197 -293 256 -219 165 -498
305 -778 390 -104 31 -287 71 -367 79 -36 4 -74 9 -85 12 -23 5 -431 13 -436
9z"/>
<path d="M2787 4524 c-1 -1 -39 -4 -83 -8 -358 -27 -757 -186 -1055 -417 -79
-62 -233 -205 -259 -243 l-23 -31 34 31 c19 17 42 37 52 45 10 8 24 20 32 27
70 63 353 227 490 284 110 46 322 103 455 123 200 29 466 26 655 -9 127 -24
137 -26 195 -42 223 -63 488 -195 670 -334 461 -351 744 -862 799 -1440 9
-101 7 -332 -4 -415 -41 -307 -154 -617 -316 -865 -35 -52 -65 -97 -68 -100
-4 -3 -19 -23 -34 -45 -51 -72 111 105 182 200 92 121 143 207 211 350 82 173
141 355 165 510 5 28 10 57 11 65 23 108 23 411 0 570 -55 376 -202 709 -442
1007 -331 408 -854 687 -1369 729 -75 6 -293 12 -298 8z"/>
<path d="M1410 3320 c-390 -7 -374 11 -378 -407 -2 -156 0 -283 5 -284 4 -1
27 -2 51 -4 l42 -2 0 273 c0 270 0 273 23 300 l23 26 864 0 c592 0 874 -3 892
-11 15 -5 30 -21 33 -33 3 -13 4 -293 3 -623 l-3 -600 -495 0 -495 0 -1 -47
c0 -27 2 -49 5 -49 20 -4 1234 -3 1239 1 8 6 10 89 2 91 -3 1 -36 2 -75 3
l-70 1 -3 248 c-2 194 0 247 10 248 7 0 64 0 127 0 87 -1 120 3 138 14 26 17
29 42 9 70 -12 16 -28 18 -150 18 l-136 -1 0 199 0 199 251 0 251 0 38 -42
c21 -24 115 -135 209 -248 134 -161 171 -211 171 -235 6 -208 3 -465 -5 -468
-5 -2 -35 -3 -65 -2 l-55 2 1 -51 1 -51 91 1 c141 0 132 -21 132 319 0 215 -3
290 -14 315 -7 17 -104 142 -216 276 -157 188 -212 248 -244 263 -36 17 -63
20 -216 20 -96 0 -209 0 -251 0 l-76 1 -5 79 c-5 91 -26 135 -78 166 -34 19
-54 20 -675 25 -352 3 -759 3 -905 0z"/>
<path d="M1257 2965 c-32 -15 -34 -60 -5 -78 25 -15 183 -17 226 -3 27 9 31
56 6 77 -20 16 -196 20 -227 4z"/>
<path d="M1917 2885 c-11 -11 -17 -33 -17 -63 l0 -47 -316 0 c-340 0 -354 -2
-354 -50 0 -50 17 -52 390 -51 190 1 351 5 357 9 7 4 16 21 20 37 l8 28 102
-71 c56 -40 102 -74 102 -77 0 -3 -46 -37 -103 -76 l-104 -72 -6 29 c-3 17
-14 33 -26 37 -11 4 -250 7 -530 7 -551 0 -529 2 -530 -51 0 -46 3 -46 510
-46 l480 0 0 -47 c0 -59 26 -90 63 -74 28 13 334 228 365 256 24 23 28 44 9
68 -19 25 -360 262 -383 266 -11 3 -28 -3 -37 -12z"/>
<path d="M1030 2116 c0 -276 -11 -260 169 -261 l131 -1 0 50 0 51 -97 0 -98 0
-3 187 -2 186 -50 0 -50 1 0 -213z"/>
<path d="M1600 2124 c-109 -38 -169 -117 -169 -224 -1 -165 194 -271 337 -183
69 42 106 108 106 187 -1 91 -40 158 -118 198 -38 20 -127 32 -156 22z m105
-108 c43 -18 69 -58 69 -106 1 -125 -151 -173 -224 -70 -18 25 -21 41 -17 76
5 50 27 80 72 100 39 17 58 17 100 0z"/>
<path d="M3471 2116 c-93 -33 -151 -122 -146 -222 6 -127 102 -213 230 -209
194 7 284 238 146 375 -66 65 -149 86 -230 56z m148 -114 c14 -10 32 -37 40
-59 50 -140 -156 -225 -224 -93 -43 84 27 187 119 176 22 -2 51 -13 65 -24z"/>
<path d="M1399 1135 c176 -195 399 -349 646 -445 82 -32 245 -76 312 -85 21
-3 54 -7 73 -10 19 -3 91 -7 160 -9 383 -9 713 95 1016 322 81 61 224 191 224
205 0 4 -26 -14 -57 -40 -359 -292 -867 -442 -1323 -388 -36 4 -76 9 -90 10
-64 7 -243 50 -320 77 -120 42 -295 127 -397 193 -85 56 -216 156 -228 174 -3
6 -20 20 -38 33 -25 17 -20 9 22 -37z"/>
</g>
</svg>
